{
    "asset": {
        "version": "2.0",
        "generator": "Open Asset Import Library (assimp v5.0.5eb040c7)"
    },
    "accessors": [
        {
            "bufferView": 0,
            "byteOffset": 0,
            "componentType": 5126,
            "count": 1234,
            "type": "VEC3",
            "max": [
                0.7598920464515686,
                0.8230916857719421,
                0.7762250900268555
            ],
            "min": [
                -0.7598920464515686,
                -1.0661249160766602,
                0.0002676031435839832
            ]
        },
        {
            "bufferView": 1,
            "byteOffset": 0,
            "componentType": 5126,
            "count": 1234,
            "type": "VEC3",
            "max": [
                1.0,
                1.0,
                1.0
            ],
            "min": [
                -1.0,
                -1.0,
                -1.0
            ]
        },
        {
            "bufferView": 2,
            "byteOffset": 0,
            "componentType": 5125,
            "count": 1878,
            "type": "SCALAR",
            "max": [
                1233
            ],
            "min": [
                0
            ]
        },
        {
            "bufferView": 3,
            "byteOffset": 0,
            "componentType": 5126,
            "count": 2868,
            "type": "VEC3",
            "max": [
                0.7627061605453491,
                0.8349533081054688,
                0.9439777135848999
            ],
            "min": [
                -0.7627061605453491,
                -1.0420646667480469,
                0.0002676031435839832
            ]
        },
        {
            "bufferView": 4,
            "byteOffset": 0,
            "componentType": 5126,
            "count": 2868,
            "type": "VEC3",
            "max": [
                1.0,
                1.0,
                1.0
            ],
            "min": [
                -1.0,
                -1.0,
                -1.0
            ]
        },
        {
            "bufferView": 5,
            "byteOffset": 0,
            "componentType": 5125,
            "count": 4314,
            "type": "SCALAR",
            "max": [
                2867
            ],
            "min": [
                0
            ]
        },
        {
            "bufferView": 6,
            "byteOffset": 0,
            "componentType": 5126,
            "count": 252,
            "type": "VEC3",
            "max": [
                0.7365466952323914,
                0.7939122915267944,
                1.0473530292510987
            ],
            "min": [
                -0.7365467548370361,
                -0.873395562171936,
                0.0002676032017916441
            ]
        },
        {
            "bufferView": 7,
            "byteOffset": 0,
            "componentType": 5126,
            "count": 252,
            "type": "VEC3",
            "max": [
                1.0,
                1.0,
                1.0
            ],
            "min": [
                -1.0,
                -1.0,
                -1.0
            ]
        },
        {
            "bufferView": 8,
            "byteOffset": 0,
            "componentType": 5125,
            "count": 612,
            "type": "SCALAR",
            "max": [
                251
            ],
            "min": [
                0
            ]
        },
        {
            "bufferView": 9,
            "byteOffset": 0,
            "componentType": 5126,
            "count": 1192,
            "type": "VEC3",
            "max": [
                0.9684677124023438,
                1.0574421882629395,
                1.073197841644287
            ],
            "min": [
                -0.9684677124023438,
                -1.0574421882629395,
                -0.00010442733764648438
            ]
        },
        {
            "bufferView": 10,
            "byteOffset": 0,
            "componentType": 5126,
            "count": 1192,
            "type": "VEC3",
            "max": [
                1.0,
                1.0,
                1.0
            ],
            "min": [
                -1.0,
                -1.0,
                -1.0
            ]
        },
        {
            "bufferView": 11,
            "byteOffset": 0,
            "componentType": 5125,
            "count": 2148,
            "type": "SCALAR",
            "max": [
                1191
            ],
            "min": [
                0
            ]
        },
        {
            "bufferView": 12,
            "byteOffset": 0,
            "componentType": 5126,
            "count": 80,
            "type": "VEC3",
            "max": [
                0.9684677124023438,
                1.0574421882629395,
                1.073197841644287
            ],
            "min": [
                -0.9684677124023438,
                -1.0574421882629395,
                0.8651679754257202
            ]
        },
        {
            "bufferView": 13,
            "byteOffset": 0,
            "componentType": 5126,
            "count": 80,
            "type": "VEC3",
            "max": [
                1.0,
                1.0,
                0.0
            ],
            "min": [
                -1.0,
                -1.0,
                0.0
            ]
        },
        {
            "bufferView": 14,
            "byteOffset": 0,
            "componentType": 5125,
            "count": 120,
            "type": "SCALAR",
            "max": [
                79
            ],
            "min": [
                0
            ]
        }
    ],
    "buffers": [
        {
            "byteLength": 171312,
            "uri": "result.bin"
        }
    ],
    "bufferViews": [
        {
            "buffer": 0,
            "byteOffset": 0,
            "byteLength": 14808,
            "target": 34962
        },
        {
            "buffer": 0,
            "byteOffset": 14808,
            "byteLength": 14808,
            "target": 34962
        },
        {
            "buffer": 0,
            "byteOffset": 29616,
            "byteLength": 7512,
            "target": 34963
        },
        {
            "buffer": 0,
            "byteOffset": 37128,
            "byteLength": 34416,
            "target": 34962
        },
        {
            "buffer": 0,
            "byteOffset": 71544,
            "byteLength": 34416,
            "target": 34962
        },
        {
            "buffer": 0,
            "byteOffset": 105960,
            "byteLength": 17256,
            "target": 34963
        },
        {
            "buffer": 0,
            "byteOffset": 123216,
            "byteLength": 3024,
            "target": 34962
        },
        {
            "buffer": 0,
            "byteOffset": 126240,
            "byteLength": 3024,
            "target": 34962
        },
        {
            "buffer": 0,
            "byteOffset": 129264,
            "byteLength": 2448,
            "target": 34963
        },
        {
            "buffer": 0,
            "byteOffset": 131712,
            "byteLength": 14304,
            "target": 34962
        },
        {
            "buffer": 0,
            "byteOffset": 146016,
            "byteLength": 14304,
            "target": 34962
        },
        {
            "buffer": 0,
            "byteOffset": 160320,
            "byteLength": 8592,
            "target": 34963
        },
        {
            "buffer": 0,
            "byteOffset": 168912,
            "byteLength": 960,
            "target": 34962
        },
        {
            "buffer": 0,
            "byteOffset": 169872,
            "byteLength": 960,
            "target": 34962
        },
        {
            "buffer": 0,
            "byteOffset": 170832,
            "byteLength": 480,
            "target": 34963
        }
    ],
    "materials": [
        {
            "name": "Stone_Light",
            "pbrMetallicRoughness": {
                "baseColorFactor": [
                    0.17722415924072267,
                    0.21141062676906587,
                    0.23063397407531739,
                    1.0
                ],
                "metallicFactor": 0.0,
                "roughnessFactor": 0.9019804000854492
            }
        },
        {
            "name": "Stone_Dark",
            "pbrMetallicRoughness": {
                "baseColorFactor": [
                    0.1237616166472435,
                    0.1461801826953888,
                    0.18126435577869416,
                    1.0
                ],
                "metallicFactor": 0.0,
                "roughnessFactor": 0.9019804000854492
            }
        },
        {
            "name": "Stone",
            "pbrMetallicRoughness": {
                "baseColorFactor": [
                    0.07763298600912094,
                    0.08187945932149887,
                    0.09541850537061691,
                    1.0
                ],
                "metallicFactor": 0.0,
                "roughnessFactor": 0.9019804000854492
            }
        },
        {
            "name": "Wood",
            "pbrMetallicRoughness": {
                "baseColorFactor": [
                    0.12234093993902207,
                    0.05478254705667496,
                    0.01932610385119915,
                    1.0
                ],
                "metallicFactor": 0.0,
                "roughnessFactor": 0.9019804000854492
            }
        },
        {
            "name": "Wood_Side",
            "pbrMetallicRoughness": {
                "baseColorFactor": [
                    0.307496041059494,
                    0.22709393501281739,
                    0.099591463804245,
                    1.0
                ],
                "metallicFactor": 0.0,
                "roughnessFactor": 0.9019804000854492
            }
        }
    ],
    "meshes": [
        {
            "name": "Cube.037",
            "primitives": [
                {
                    "mode": 4,
                    "material": 0,
                    "indices": 2,
                    "attributes": {
                        "POSITION": 0,
                        "NORMAL": 1
                    }
                },
                {
                    "mode": 4,
                    "material": 1,
                    "indices": 5,
                    "attributes": {
                        "POSITION": 3,
                        "NORMAL": 4
                    }
                },
                {
                    "mode": 4,
                    "material": 2,
                    "indices": 8,
                    "attributes": {
                        "POSITION": 6,
                        "NORMAL": 7
                    }
                },
                {
                    "mode": 4,
                    "material": 3,
                    "indices": 11,
                    "attributes": {
                        "POSITION": 9,
                        "NORMAL": 10
                    }
                },
                {
                    "mode": 4,
                    "material": 4,
                    "indices": 14,
                    "attributes": {
                        "POSITION": 12,
                        "NORMAL": 13
                    }
                }
            ]
        }
    ],
    "nodes": [
        {
            "name": "RootNode",
            "children": [
                1
            ]
        },
        {
            "name": "House_4",
            "matrix": [
                100.0,
                0.0,
                0.0,
                0.0,
                0.0,
                -0.000016292067812173629,
                -100.0,
                0.0,
                0.0,
                100.0,
                -0.000016292067812173629,
                0.0,
                0.0,
                0.0,
                0.0,
                1.0
            ],
            "mesh": 0
        }
    ],
    "scenes": [
        {
            "nodes": [
                0
            ]
        }
    ],
    "scene": 0
}