{
    "asset": {
        "version": "2.0",
        "generator": "Open Asset Import Library (assimp v5.0.5eb040c7)"
    },
    "accessors": [
        {
            "bufferView": 0,
            "byteOffset": 0,
            "componentType": 5126,
            "count": 4092,
            "type": "VEC3",
            "max": [
                0.8528432250022888,
                1.049436092376709,
                2.982637882232666
            ],
            "min": [
                -1.1188867092132569,
                -0.8675439357757568,
                -0.0017008900176733733
            ]
        },
        {
            "bufferView": 1,
            "byteOffset": 0,
            "componentType": 5126,
            "count": 4092,
            "type": "VEC3",
            "max": [
                1.0,
                1.0,
                1.0
            ],
            "min": [
                -1.0,
                -1.0,
                -1.0
            ]
        },
        {
            "bufferView": 2,
            "byteOffset": 0,
            "componentType": 5125,
            "count": 6156,
            "type": "SCALAR",
            "max": [
                4091
            ],
            "min": [
                0
            ]
        },
        {
            "bufferView": 3,
            "byteOffset": 0,
            "componentType": 5126,
            "count": 3662,
            "type": "VEC3",
            "max": [
                1.101274013519287,
                2.0710842609405519,
                3.2486515045166017
            ],
            "min": [
                -1.0426490306854249,
                -1.3489402532577515,
                0.00012038953718729317
            ]
        },
        {
            "bufferView": 4,
            "byteOffset": 0,
            "componentType": 5126,
            "count": 3662,
            "type": "VEC3",
            "max": [
                1.0,
                1.0,
                1.0
            ],
            "min": [
                -1.0,
                -1.0,
                -1.0
            ]
        },
        {
            "bufferView": 5,
            "byteOffset": 0,
            "componentType": 5125,
            "count": 6030,
            "type": "SCALAR",
            "max": [
                3661
            ],
            "min": [
                0
            ]
        },
        {
            "bufferView": 6,
            "byteOffset": 0,
            "componentType": 5126,
            "count": 48,
            "type": "VEC3",
            "max": [
                0.8436011075973511,
                1.8697272539138795,
                3.0743868350982668
            ],
            "min": [
                -0.7849763631820679,
                -1.0190454721450806,
                0.960783839225769
            ]
        },
        {
            "bufferView": 7,
            "byteOffset": 0,
            "componentType": 5126,
            "count": 48,
            "type": "VEC3",
            "max": [
                1.0,
                1.0,
                1.0
            ],
            "min": [
                -1.0,
                -1.0,
                -1.0
            ]
        },
        {
            "bufferView": 8,
            "byteOffset": 0,
            "componentType": 5125,
            "count": 72,
            "type": "SCALAR",
            "max": [
                47
            ],
            "min": [
                0
            ]
        },
        {
            "bufferView": 9,
            "byteOffset": 0,
            "componentType": 5126,
            "count": 584,
            "type": "VEC3",
            "max": [
                0.8413410186767578,
                1.9082844257354737,
                2.6805007457733156
            ],
            "min": [
                -0.5963160395622253,
                -1.0599844455718995,
                0.21471664309501649
            ]
        },
        {
            "bufferView": 10,
            "byteOffset": 0,
            "componentType": 5126,
            "count": 584,
            "type": "VEC3",
            "max": [
                1.0,
                1.0,
                1.0
            ],
            "min": [
                -1.0,
                -1.0,
                -1.0
            ]
        },
        {
            "bufferView": 11,
            "byteOffset": 0,
            "componentType": 5125,
            "count": 924,
            "type": "SCALAR",
            "max": [
                583
            ],
            "min": [
                0
            ]
        },
        {
            "bufferView": 12,
            "byteOffset": 0,
            "componentType": 5126,
            "count": 66,
            "type": "VEC3",
            "max": [
                0.8320105671882629,
                1.892602801322937,
                2.675239086151123
            ],
            "min": [
                -0.5652545690536499,
                -1.0443027019500733,
                1.2756624221801758
            ]
        },
        {
            "bufferView": 13,
            "byteOffset": 0,
            "componentType": 5126,
            "count": 66,
            "type": "VEC3",
            "max": [
                1.0,
                1.0,
                5.075378339824965e-7
            ],
            "min": [
                -1.0,
                -1.0,
                -5.527422217710409e-7
            ]
        },
        {
            "bufferView": 14,
            "byteOffset": 0,
            "componentType": 5125,
            "count": 144,
            "type": "SCALAR",
            "max": [
                65
            ],
            "min": [
                0
            ]
        },
        {
            "bufferView": 15,
            "byteOffset": 0,
            "componentType": 5126,
            "count": 2284,
            "type": "VEC3",
            "max": [
                1.022843360900879,
                1.8768466711044312,
                3.156372547149658
            ],
            "min": [
                -0.9642186760902405,
                -1.2129454612731934,
                1.817395806312561
            ]
        },
        {
            "bufferView": 16,
            "byteOffset": 0,
            "componentType": 5126,
            "count": 2284,
            "type": "VEC3",
            "max": [
                1.0,
                1.0,
                0.9091954231262207
            ],
            "min": [
                -1.0,
                -1.0,
                -0.909196138381958
            ]
        },
        {
            "bufferView": 17,
            "byteOffset": 0,
            "componentType": 5125,
            "count": 3648,
            "type": "SCALAR",
            "max": [
                2283
            ],
            "min": [
                0
            ]
        },
        {
            "bufferView": 18,
            "byteOffset": 0,
            "componentType": 5126,
            "count": 160,
            "type": "VEC3",
            "max": [
                0.9977801442146301,
                1.972010850906372,
                3.0456907749176027
            ],
            "min": [
                -0.9391553997993469,
                -1.2834378480911255,
                0.8648831248283386
            ]
        },
        {
            "bufferView": 19,
            "byteOffset": 0,
            "componentType": 5126,
            "count": 160,
            "type": "VEC3",
            "max": [
                1.0,
                1.0,
                0.0000034830375170713525
            ],
            "min": [
                -1.0,
                -1.0,
                -0.0000013760136425844394
            ]
        },
        {
            "bufferView": 20,
            "byteOffset": 0,
            "componentType": 5125,
            "count": 240,
            "type": "SCALAR",
            "max": [
                159
            ],
            "min": [
                0
            ]
        },
        {
            "bufferView": 21,
            "byteOffset": 0,
            "componentType": 5126,
            "count": 26,
            "type": "VEC3",
            "max": [
                0.765859067440033,
                0.7613216638565064,
                1.075757622718811
            ],
            "min": [
                -0.7072343230247498,
                -0.8265029191970825,
                0.00012038953718729317
            ]
        },
        {
            "bufferView": 22,
            "byteOffset": 0,
            "componentType": 5126,
            "count": 26,
            "type": "VEC3",
            "max": [
                1.0,
                1.0,
                1.0
            ],
            "min": [
                -1.0,
                -1.0,
                0.0
            ]
        },
        {
            "bufferView": 23,
            "byteOffset": 0,
            "componentType": 5125,
            "count": 48,
            "type": "SCALAR",
            "max": [
                25
            ],
            "min": [
                0
            ]
        },
        {
            "bufferView": 24,
            "byteOffset": 0,
            "componentType": 5126,
            "count": 2798,
            "type": "VEC3",
            "max": [
                0.7892044186592102,
                1.0335344076156617,
                2.8727803230285646
            ],
            "min": [
                -1.1188867092132569,
                -0.855682373046875,
                -0.0017008900176733733
            ]
        },
        {
            "bufferView": 25,
            "byteOffset": 0,
            "componentType": 5126,
            "count": 2798,
            "type": "VEC3",
            "max": [
                1.0,
                1.0,
                1.0
            ],
            "min": [
                -1.0,
                -1.0,
                -1.0
            ]
        },
        {
            "bufferView": 26,
            "byteOffset": 0,
            "componentType": 5125,
            "count": 4224,
            "type": "SCALAR",
            "max": [
                2797
            ],
            "min": [
                0
            ]
        }
    ],
    "buffers": [
        {
            "byteLength": 415224,
            "uri": "result.bin"
        }
    ],
    "bufferViews": [
        {
            "buffer": 0,
            "byteOffset": 0,
            "byteLength": 49104,
            "target": 34962
        },
        {
            "buffer": 0,
            "byteOffset": 49104,
            "byteLength": 49104,
            "target": 34962
        },
        {
            "buffer": 0,
            "byteOffset": 98208,
            "byteLength": 24624,
            "target": 34963
        },
        {
            "buffer": 0,
            "byteOffset": 122832,
            "byteLength": 43944,
            "target": 34962
        },
        {
            "buffer": 0,
            "byteOffset": 166776,
            "byteLength": 43944,
            "target": 34962
        },
        {
            "buffer": 0,
            "byteOffset": 210720,
            "byteLength": 24120,
            "target": 34963
        },
        {
            "buffer": 0,
            "byteOffset": 234840,
            "byteLength": 576,
            "target": 34962
        },
        {
            "buffer": 0,
            "byteOffset": 235416,
            "byteLength": 576,
            "target": 34962
        },
        {
            "buffer": 0,
            "byteOffset": 235992,
            "byteLength": 288,
            "target": 34963
        },
        {
            "buffer": 0,
            "byteOffset": 236280,
            "byteLength": 7008,
            "target": 34962
        },
        {
            "buffer": 0,
            "byteOffset": 243288,
            "byteLength": 7008,
            "target": 34962
        },
        {
            "buffer": 0,
            "byteOffset": 250296,
            "byteLength": 3696,
            "target": 34963
        },
        {
            "buffer": 0,
            "byteOffset": 253992,
            "byteLength": 792,
            "target": 34962
        },
        {
            "buffer": 0,
            "byteOffset": 254784,
            "byteLength": 792,
            "target": 34962
        },
        {
            "buffer": 0,
            "byteOffset": 255576,
            "byteLength": 576,
            "target": 34963
        },
        {
            "buffer": 0,
            "byteOffset": 256152,
            "byteLength": 27408,
            "target": 34962
        },
        {
            "buffer": 0,
            "byteOffset": 283560,
            "byteLength": 27408,
            "target": 34962
        },
        {
            "buffer": 0,
            "byteOffset": 310968,
            "byteLength": 14592,
            "target": 34963
        },
        {
            "buffer": 0,
            "byteOffset": 325560,
            "byteLength": 1920,
            "target": 34962
        },
        {
            "buffer": 0,
            "byteOffset": 327480,
            "byteLength": 1920,
            "target": 34962
        },
        {
            "buffer": 0,
            "byteOffset": 329400,
            "byteLength": 960,
            "target": 34963
        },
        {
            "buffer": 0,
            "byteOffset": 330360,
            "byteLength": 312,
            "target": 34962
        },
        {
            "buffer": 0,
            "byteOffset": 330672,
            "byteLength": 312,
            "target": 34962
        },
        {
            "buffer": 0,
            "byteOffset": 330984,
            "byteLength": 192,
            "target": 34963
        },
        {
            "buffer": 0,
            "byteOffset": 331176,
            "byteLength": 33576,
            "target": 34962
        },
        {
            "buffer": 0,
            "byteOffset": 364752,
            "byteLength": 33576,
            "target": 34962
        },
        {
            "buffer": 0,
            "byteOffset": 398328,
            "byteLength": 16896,
            "target": 34963
        }
    ],
    "materials": [
        {
            "name": "Stone_Dark",
            "pbrMetallicRoughness": {
                "baseColorFactor": [
                    0.1237616166472435,
                    0.1461801826953888,
                    0.18126435577869416,
                    1.0
                ],
                "metallicFactor": 0.0,
                "roughnessFactor": 0.9019804000854492
            }
        },
        {
            "name": "Wood",
            "pbrMetallicRoughness": {
                "baseColorFactor": [
                    0.12234093993902207,
                    0.05478254705667496,
                    0.01932610385119915,
                    1.0
                ],
                "metallicFactor": 0.0,
                "roughnessFactor": 0.9019804000854492
            }
        },
        {
            "name": "Beige",
            "pbrMetallicRoughness": {
                "baseColorFactor": [
                    0.3433777987957001,
                    0.3239832818508148,
                    0.18359464406967164,
                    1.0
                ],
                "metallicFactor": 0.0,
                "roughnessFactor": 0.9019804000854492
            }
        },
        {
            "name": "Wood_Light",
            "pbrMetallicRoughness": {
                "baseColorFactor": [
                    0.21340656280517579,
                    0.09224005788564682,
                    0.03175000101327896,
                    1.0
                ],
                "metallicFactor": 0.0,
                "roughnessFactor": 0.9019804000854492
            }
        },
        {
            "name": "Windows",
            "pbrMetallicRoughness": {
                "baseColorFactor": [
                    0.028172848746180536,
                    0.028172848746180536,
                    0.028172848746180536,
                    1.0
                ],
                "metallicFactor": 0.0,
                "roughnessFactor": 0.9019804000854492
            }
        },
        {
            "name": "RoofTiles",
            "pbrMetallicRoughness": {
                "baseColorFactor": [
                    0.015384419821202755,
                    0.09670525044202805,
                    0.1178475022315979,
                    1.0
                ],
                "metallicFactor": 0.0,
                "roughnessFactor": 0.9019804000854492
            }
        },
        {
            "name": "Wood_Side",
            "pbrMetallicRoughness": {
                "baseColorFactor": [
                    0.307496041059494,
                    0.22709393501281739,
                    0.099591463804245,
                    1.0
                ],
                "metallicFactor": 0.0,
                "roughnessFactor": 0.9019804000854492
            }
        },
        {
            "name": "Stone",
            "pbrMetallicRoughness": {
                "baseColorFactor": [
                    0.07763298600912094,
                    0.08187945932149887,
                    0.09541850537061691,
                    1.0
                ],
                "metallicFactor": 0.0,
                "roughnessFactor": 0.9019804000854492
            }
        },
        {
            "name": "Stone_Light",
            "pbrMetallicRoughness": {
                "baseColorFactor": [
                    0.17722415924072267,
                    0.21141062676906587,
                    0.23063397407531739,
                    1.0
                ],
                "metallicFactor": 0.0,
                "roughnessFactor": 0.9019804000854492
            }
        }
    ],
    "meshes": [
        {
            "name": "Cylinder.021",
            "primitives": [
                {
                    "mode": 4,
                    "material": 0,
                    "indices": 2,
                    "attributes": {
                        "POSITION": 0,
                        "NORMAL": 1
                    }
                },
                {
                    "mode": 4,
                    "material": 1,
                    "indices": 5,
                    "attributes": {
                        "POSITION": 3,
                        "NORMAL": 4
                    }
                },
                {
                    "mode": 4,
                    "material": 2,
                    "indices": 8,
                    "attributes": {
                        "POSITION": 6,
                        "NORMAL": 7
                    }
                },
                {
                    "mode": 4,
                    "material": 3,
                    "indices": 11,
                    "attributes": {
                        "POSITION": 9,
                        "NORMAL": 10
                    }
                },
                {
                    "mode": 4,
                    "material": 4,
                    "indices": 14,
                    "attributes": {
                        "POSITION": 12,
                        "NORMAL": 13
                    }
                },
                {
                    "mode": 4,
                    "material": 5,
                    "indices": 17,
                    "attributes": {
                        "POSITION": 15,
                        "NORMAL": 16
                    }
                },
                {
                    "mode": 4,
                    "material": 6,
                    "indices": 20,
                    "attributes": {
                        "POSITION": 18,
                        "NORMAL": 19
                    }
                },
                {
                    "mode": 4,
                    "material": 7,
                    "indices": 23,
                    "attributes": {
                        "POSITION": 21,
                        "NORMAL": 22
                    }
                },
                {
                    "mode": 4,
                    "material": 8,
                    "indices": 26,
                    "attributes": {
                        "POSITION": 24,
                        "NORMAL": 25
                    }
                }
            ]
        }
    ],
    "nodes": [
        {
            "name": "RootNode",
            "children": [
                1
            ]
        },
        {
            "name": "House_2",
            "matrix": [
                100.0,
                0.0,
                0.0,
                0.0,
                0.0,
                -0.000016292067812173629,
                -100.0,
                0.0,
                0.0,
                100.0,
                -0.000016292067812173629,
                0.0,
                0.0,
                0.0,
                0.0,
                1.0
            ],
            "mesh": 0
        }
    ],
    "scenes": [
        {
            "nodes": [
                0
            ]
        }
    ],
    "scene": 0
}