{
    "asset": {
        "version": "2.0",
        "generator": "Open Asset Import Library (assimp v5.0.5eb040c7)"
    },
    "accessors": [
        {
            "bufferView": 0,
            "byteOffset": 0,
            "componentType": 5126,
            "count": 2252,
            "type": "VEC3",
            "max": [
                1.6783697605133057,
                1.1803548336029053,
                3.911659002304077
            ],
            "min": [
                -1.6783697605133057,
                -1.1803548336029053,
                0.6570672988891602
            ]
        },
        {
            "bufferView": 1,
            "byteOffset": 0,
            "componentType": 5126,
            "count": 2252,
            "type": "VEC3",
            "max": [
                1.0,
                1.0,
                0.9749756455421448
            ],
            "min": [
                -1.0,
                -1.0,
                -0.9194561243057251
            ]
        },
        {
            "bufferView": 2,
            "byteOffset": 0,
            "componentType": 5125,
            "count": 3492,
            "type": "SCALAR",
            "max": [
                2251
            ],
            "min": [
                0
            ]
        },
        {
            "bufferView": 3,
            "byteOffset": 0,
            "componentType": 5126,
            "count": 1642,
            "type": "VEC3",
            "max": [
                0.7598920464515686,
                0.9523158669471741,
                4.0366034507751469
            ],
            "min": [
                -0.7598920464515686,
                -1.0661249160766602,
                0.00009822845458984375
            ]
        },
        {
            "bufferView": 4,
            "byteOffset": 0,
            "componentType": 5126,
            "count": 1642,
            "type": "VEC3",
            "max": [
                1.0,
                1.0,
                1.0
            ],
            "min": [
                -1.0,
                -1.0,
                -1.0
            ]
        },
        {
            "bufferView": 5,
            "byteOffset": 0,
            "componentType": 5125,
            "count": 2490,
            "type": "SCALAR",
            "max": [
                1641
            ],
            "min": [
                0
            ]
        },
        {
            "bufferView": 6,
            "byteOffset": 0,
            "componentType": 5126,
            "count": 3928,
            "type": "VEC3",
            "max": [
                0.9318082332611084,
                0.9615623950958252,
                4.143428802490234
            ],
            "min": [
                -0.9318082332611084,
                -1.0420645475387574,
                0.00009822845458984375
            ]
        },
        {
            "bufferView": 7,
            "byteOffset": 0,
            "componentType": 5126,
            "count": 3928,
            "type": "VEC3",
            "max": [
                1.0,
                1.0,
                1.0
            ],
            "min": [
                -1.0,
                -1.0,
                -1.0
            ]
        },
        {
            "bufferView": 8,
            "byteOffset": 0,
            "componentType": 5125,
            "count": 5910,
            "type": "SCALAR",
            "max": [
                3927
            ],
            "min": [
                0
            ]
        },
        {
            "bufferView": 9,
            "byteOffset": 0,
            "componentType": 5126,
            "count": 3968,
            "type": "VEC3",
            "max": [
                1.6983904838562012,
                1.3424761295318604,
                4.016302585601807
            ],
            "min": [
                -1.6983904838562012,
                -1.2757397890090943,
                0.00009822845458984375
            ]
        },
        {
            "bufferView": 10,
            "byteOffset": 0,
            "componentType": 5126,
            "count": 3968,
            "type": "VEC3",
            "max": [
                1.0,
                1.0,
                1.0
            ],
            "min": [
                -1.0,
                -1.0,
                -1.0
            ]
        },
        {
            "bufferView": 11,
            "byteOffset": 0,
            "componentType": 5125,
            "count": 6516,
            "type": "SCALAR",
            "max": [
                3967
            ],
            "min": [
                0
            ]
        },
        {
            "bufferView": 12,
            "byteOffset": 0,
            "componentType": 5126,
            "count": 60,
            "type": "VEC3",
            "max": [
                0.8136951923370361,
                1.0117120742797852,
                3.3848655223846437
            ],
            "min": [
                -0.8136951923370361,
                -1.0117120742797852,
                1.2949824333190919
            ]
        },
        {
            "bufferView": 13,
            "byteOffset": 0,
            "componentType": 5126,
            "count": 60,
            "type": "VEC3",
            "max": [
                1.0,
                1.0,
                1.824446371756494e-7
            ],
            "min": [
                -1.0,
                -1.0,
                -1.824446371756494e-7
            ]
        },
        {
            "bufferView": 14,
            "byteOffset": 0,
            "componentType": 5125,
            "count": 132,
            "type": "SCALAR",
            "max": [
                59
            ],
            "min": [
                0
            ]
        },
        {
            "bufferView": 15,
            "byteOffset": 0,
            "componentType": 5126,
            "count": 504,
            "type": "VEC3",
            "max": [
                0.8284247517585754,
                1.0273938179016114,
                3.390126943588257
            ],
            "min": [
                -0.8284247517585754,
                -1.0273938179016114,
                0.21500158309936524
            ]
        },
        {
            "bufferView": 16,
            "byteOffset": 0,
            "componentType": 5126,
            "count": 504,
            "type": "VEC3",
            "max": [
                1.0,
                1.0,
                1.0
            ],
            "min": [
                -1.0,
                -1.0,
                -1.0
            ]
        },
        {
            "bufferView": 17,
            "byteOffset": 0,
            "componentType": 5125,
            "count": 804,
            "type": "SCALAR",
            "max": [
                503
            ],
            "min": [
                0
            ]
        },
        {
            "bufferView": 18,
            "byteOffset": 0,
            "componentType": 5126,
            "count": 168,
            "type": "VEC3",
            "max": [
                1.6917636394500733,
                1.2508471012115479,
                3.826786994934082
            ],
            "min": [
                -1.6917636394500733,
                -1.2508471012115479,
                0.5461289882659912
            ]
        },
        {
            "bufferView": 19,
            "byteOffset": 0,
            "componentType": 5126,
            "count": 168,
            "type": "VEC3",
            "max": [
                0.9315343499183655,
                1.0,
                0.0000027520375169842738
            ],
            "min": [
                -0.9315343499183655,
                -1.0,
                -0.36365365982055666
            ]
        },
        {
            "bufferView": 20,
            "byteOffset": 0,
            "componentType": 5125,
            "count": 252,
            "type": "SCALAR",
            "max": [
                167
            ],
            "min": [
                0
            ]
        },
        {
            "bufferView": 21,
            "byteOffset": 0,
            "componentType": 5126,
            "count": 660,
            "type": "VEC3",
            "max": [
                0.9243749976158142,
                0.23067277669906617,
                2.137221574783325
            ],
            "min": [
                -0.9243749976158142,
                -0.23750102519989015,
                1.2394146919250489
            ]
        },
        {
            "bufferView": 22,
            "byteOffset": 0,
            "componentType": 5126,
            "count": 660,
            "type": "VEC3",
            "max": [
                1.0,
                0.918545126914978,
                0.9825451374053955
            ],
            "min": [
                -1.0,
                -0.918545126914978,
                -0.00000125822884911031
            ]
        },
        {
            "bufferView": 23,
            "byteOffset": 0,
            "componentType": 5125,
            "count": 1344,
            "type": "SCALAR",
            "max": [
                659
            ],
            "min": [
                0
            ]
        },
        {
            "bufferView": 24,
            "byteOffset": 0,
            "componentType": 5126,
            "count": 44,
            "type": "VEC3",
            "max": [
                0.8142887949943543,
                0.9864547252655029,
                3.855483055114746
            ],
            "min": [
                -0.8142887949943543,
                -0.9864547252655029,
                0.961068868637085
            ]
        },
        {
            "bufferView": 25,
            "byteOffset": 0,
            "componentType": 5126,
            "count": 44,
            "type": "VEC3",
            "max": [
                1.0,
                1.0,
                1.0
            ],
            "min": [
                -1.0,
                -1.0,
                -1.0
            ]
        },
        {
            "bufferView": 26,
            "byteOffset": 0,
            "componentType": 5125,
            "count": 66,
            "type": "SCALAR",
            "max": [
                43
            ],
            "min": [
                0
            ]
        },
        {
            "bufferView": 27,
            "byteOffset": 0,
            "componentType": 5126,
            "count": 26,
            "type": "VEC3",
            "max": [
                0.7365466952323914,
                0.7939122319221497,
                1.076042652130127
            ],
            "min": [
                -0.7365466952323914,
                -0.7939122319221497,
                0.00009822845458984375
            ]
        },
        {
            "bufferView": 28,
            "byteOffset": 0,
            "componentType": 5126,
            "count": 26,
            "type": "VEC3",
            "max": [
                1.0,
                1.0,
                1.0
            ],
            "min": [
                -1.0,
                -1.0,
                0.0
            ]
        },
        {
            "bufferView": 29,
            "byteOffset": 0,
            "componentType": 5125,
            "count": 48,
            "type": "SCALAR",
            "max": [
                25
            ],
            "min": [
                0
            ]
        },
        {
            "bufferView": 30,
            "byteOffset": 0,
            "componentType": 5126,
            "count": 1760,
            "type": "VEC3",
            "max": [
                1.6791033744812012,
                -0.3855189085006714,
                1.6791034936904908
            ],
            "min": [
                -1.6791032552719117,
                -0.45552289485931399,
                -1.6791034936904908
            ]
        },
        {
            "bufferView": 31,
            "byteOffset": 0,
            "componentType": 5126,
            "count": 1760,
            "type": "VEC3",
            "max": [
                1.0,
                1.0,
                1.0
            ],
            "min": [
                -1.0,
                -1.0,
                -1.0
            ]
        },
        {
            "bufferView": 32,
            "byteOffset": 0,
            "componentType": 5125,
            "count": 2976,
            "type": "SCALAR",
            "max": [
                1759
            ],
            "min": [
                0
            ]
        },
        {
            "bufferView": 33,
            "byteOffset": 0,
            "componentType": 5126,
            "count": 88,
            "type": "VEC3",
            "max": [
                1.6142137050628663,
                -0.42015334963798525,
                1.6142138242721558
            ],
            "min": [
                -1.6142135858535767,
                -0.42084261775016787,
                -1.6142138242721558
            ]
        },
        {
            "bufferView": 34,
            "byteOffset": 0,
            "componentType": 5126,
            "count": 88,
            "type": "VEC3",
            "max": [
                0.0004901770735159516,
                -0.9999998807907105,
                0.0004904318484477699
            ],
            "min": [
                -0.0004901771899312735,
                -0.9999999403953552,
                -0.0004904932575300336
            ]
        },
        {
            "bufferView": 35,
            "byteOffset": 0,
            "componentType": 5125,
            "count": 264,
            "type": "SCALAR",
            "max": [
                87
            ],
            "min": [
                0
            ]
        },
        {
            "bufferView": 36,
            "byteOffset": 0,
            "componentType": 5126,
            "count": 40,
            "type": "VEC3",
            "max": [
                0.06695327162742615,
                -1.2671080185100437e-7,
                0.06367634981870651
            ],
            "min": [
                -0.06695325672626496,
                -0.5172663927078247,
                -0.06367634981870651
            ]
        },
        {
            "bufferView": 37,
            "byteOffset": 0,
            "componentType": 5126,
            "count": 40,
            "type": "VEC3",
            "max": [
                0.9510565400123596,
                2.955117039959987e-8,
                1.0
            ],
            "min": [
                -0.9510565996170044,
                -2.411226951437584e-8,
                -1.0
            ]
        },
        {
            "bufferView": 38,
            "byteOffset": 0,
            "componentType": 5125,
            "count": 60,
            "type": "SCALAR",
            "max": [
                39
            ],
            "min": [
                0
            ]
        },
        {
            "bufferView": 39,
            "byteOffset": 0,
            "componentType": 5126,
            "count": 10,
            "type": "VEC3",
            "max": [
                0.06695327162742615,
                -0.5172663927078247,
                0.06367633491754532
            ],
            "min": [
                -0.06695325672626496,
                -0.5172663927078247,
                -0.06367634981870651
            ]
        },
        {
            "bufferView": 40,
            "byteOffset": 0,
            "componentType": 5126,
            "count": 10,
            "type": "VEC3",
            "max": [
                0.0,
                -1.0,
                -1.4138323933821085e-7
            ],
            "min": [
                0.0,
                -1.0,
                -1.4138323933821085e-7
            ]
        },
        {
            "bufferView": 41,
            "byteOffset": 0,
            "componentType": 5125,
            "count": 24,
            "type": "SCALAR",
            "max": [
                9
            ],
            "min": [
                0
            ]
        }
    ],
    "buffers": [
        {
            "byteLength": 461112,
            "uri": "result.bin"
        }
    ],
    "bufferViews": [
        {
            "buffer": 0,
            "byteOffset": 0,
            "byteLength": 27024,
            "target": 34962
        },
        {
            "buffer": 0,
            "byteOffset": 27024,
            "byteLength": 27024,
            "target": 34962
        },
        {
            "buffer": 0,
            "byteOffset": 54048,
            "byteLength": 13968,
            "target": 34963
        },
        {
            "buffer": 0,
            "byteOffset": 68016,
            "byteLength": 19704,
            "target": 34962
        },
        {
            "buffer": 0,
            "byteOffset": 87720,
            "byteLength": 19704,
            "target": 34962
        },
        {
            "buffer": 0,
            "byteOffset": 107424,
            "byteLength": 9960,
            "target": 34963
        },
        {
            "buffer": 0,
            "byteOffset": 117384,
            "byteLength": 47136,
            "target": 34962
        },
        {
            "buffer": 0,
            "byteOffset": 164520,
            "byteLength": 47136,
            "target": 34962
        },
        {
            "buffer": 0,
            "byteOffset": 211656,
            "byteLength": 23640,
            "target": 34963
        },
        {
            "buffer": 0,
            "byteOffset": 235296,
            "byteLength": 47616,
            "target": 34962
        },
        {
            "buffer": 0,
            "byteOffset": 282912,
            "byteLength": 47616,
            "target": 34962
        },
        {
            "buffer": 0,
            "byteOffset": 330528,
            "byteLength": 26064,
            "target": 34963
        },
        {
            "buffer": 0,
            "byteOffset": 356592,
            "byteLength": 720,
            "target": 34962
        },
        {
            "buffer": 0,
            "byteOffset": 357312,
            "byteLength": 720,
            "target": 34962
        },
        {
            "buffer": 0,
            "byteOffset": 358032,
            "byteLength": 528,
            "target": 34963
        },
        {
            "buffer": 0,
            "byteOffset": 358560,
            "byteLength": 6048,
            "target": 34962
        },
        {
            "buffer": 0,
            "byteOffset": 364608,
            "byteLength": 6048,
            "target": 34962
        },
        {
            "buffer": 0,
            "byteOffset": 370656,
            "byteLength": 3216,
            "target": 34963
        },
        {
            "buffer": 0,
            "byteOffset": 373872,
            "byteLength": 2016,
            "target": 34962
        },
        {
            "buffer": 0,
            "byteOffset": 375888,
            "byteLength": 2016,
            "target": 34962
        },
        {
            "buffer": 0,
            "byteOffset": 377904,
            "byteLength": 1008,
            "target": 34963
        },
        {
            "buffer": 0,
            "byteOffset": 378912,
            "byteLength": 7920,
            "target": 34962
        },
        {
            "buffer": 0,
            "byteOffset": 386832,
            "byteLength": 7920,
            "target": 34962
        },
        {
            "buffer": 0,
            "byteOffset": 394752,
            "byteLength": 5376,
            "target": 34963
        },
        {
            "buffer": 0,
            "byteOffset": 400128,
            "byteLength": 528,
            "target": 34962
        },
        {
            "buffer": 0,
            "byteOffset": 400656,
            "byteLength": 528,
            "target": 34962
        },
        {
            "buffer": 0,
            "byteOffset": 401184,
            "byteLength": 264,
            "target": 34963
        },
        {
            "buffer": 0,
            "byteOffset": 401448,
            "byteLength": 312,
            "target": 34962
        },
        {
            "buffer": 0,
            "byteOffset": 401760,
            "byteLength": 312,
            "target": 34962
        },
        {
            "buffer": 0,
            "byteOffset": 402072,
            "byteLength": 192,
            "target": 34963
        },
        {
            "buffer": 0,
            "byteOffset": 402264,
            "byteLength": 21120,
            "target": 34962
        },
        {
            "buffer": 0,
            "byteOffset": 423384,
            "byteLength": 21120,
            "target": 34962
        },
        {
            "buffer": 0,
            "byteOffset": 444504,
            "byteLength": 11904,
            "target": 34963
        },
        {
            "buffer": 0,
            "byteOffset": 456408,
            "byteLength": 1056,
            "target": 34962
        },
        {
            "buffer": 0,
            "byteOffset": 457464,
            "byteLength": 1056,
            "target": 34962
        },
        {
            "buffer": 0,
            "byteOffset": 458520,
            "byteLength": 1056,
            "target": 34963
        },
        {
            "buffer": 0,
            "byteOffset": 459576,
            "byteLength": 480,
            "target": 34962
        },
        {
            "buffer": 0,
            "byteOffset": 460056,
            "byteLength": 480,
            "target": 34962
        },
        {
            "buffer": 0,
            "byteOffset": 460536,
            "byteLength": 240,
            "target": 34963
        },
        {
            "buffer": 0,
            "byteOffset": 460776,
            "byteLength": 120,
            "target": 34962
        },
        {
            "buffer": 0,
            "byteOffset": 460896,
            "byteLength": 120,
            "target": 34962
        },
        {
            "buffer": 0,
            "byteOffset": 461016,
            "byteLength": 96,
            "target": 34963
        }
    ],
    "materials": [
        {
            "name": "RoofTiles",
            "pbrMetallicRoughness": {
                "baseColorFactor": [
                    0.015384419821202755,
                    0.09670525044202805,
                    0.1178475022315979,
                    1.0
                ],
                "metallicFactor": 0.0,
                "roughnessFactor": 0.9019804000854492
            }
        },
        {
            "name": "Stone_Light",
            "pbrMetallicRoughness": {
                "baseColorFactor": [
                    0.17722415924072267,
                    0.21141062676906587,
                    0.23063397407531739,
                    1.0
                ],
                "metallicFactor": 0.0,
                "roughnessFactor": 0.9019804000854492
            }
        },
        {
            "name": "Stone_Dark",
            "pbrMetallicRoughness": {
                "baseColorFactor": [
                    0.1237616166472435,
                    0.1461801826953888,
                    0.18126435577869416,
                    1.0
                ],
                "metallicFactor": 0.0,
                "roughnessFactor": 0.9019804000854492
            }
        },
        {
            "name": "Wood",
            "pbrMetallicRoughness": {
                "baseColorFactor": [
                    0.12234093993902207,
                    0.05478254705667496,
                    0.01932610385119915,
                    1.0
                ],
                "metallicFactor": 0.0,
                "roughnessFactor": 0.9019804000854492
            }
        },
        {
            "name": "Windows",
            "pbrMetallicRoughness": {
                "baseColorFactor": [
                    0.028172848746180536,
                    0.028172848746180536,
                    0.028172848746180536,
                    1.0
                ],
                "metallicFactor": 0.0,
                "roughnessFactor": 0.9019804000854492
            }
        },
        {
            "name": "Wood_Light",
            "pbrMetallicRoughness": {
                "baseColorFactor": [
                    0.21340656280517579,
                    0.09224005788564682,
                    0.03175000101327896,
                    1.0
                ],
                "metallicFactor": 0.0,
                "roughnessFactor": 0.9019804000854492
            }
        },
        {
            "name": "Wood_Side",
            "pbrMetallicRoughness": {
                "baseColorFactor": [
                    0.307496041059494,
                    0.22709393501281739,
                    0.099591463804245,
                    1.0
                ],
                "metallicFactor": 0.0,
                "roughnessFactor": 0.9019804000854492
            }
        },
        {
            "name": "Green",
            "pbrMetallicRoughness": {
                "baseColorFactor": [
                    0.06635841727256775,
                    0.11784595251083374,
                    0.02829301729798317,
                    1.0
                ],
                "metallicFactor": 0.0,
                "roughnessFactor": 0.9019804000854492
            }
        },
        {
            "name": "Plaster",
            "pbrMetallicRoughness": {
                "baseColorFactor": [
                    0.3433777987957001,
                    0.3239832818508148,
                    0.18359464406967164,
                    1.0
                ],
                "metallicFactor": 0.0,
                "roughnessFactor": 0.9019804000854492
            }
        },
        {
            "name": "Stone",
            "pbrMetallicRoughness": {
                "baseColorFactor": [
                    0.07763298600912094,
                    0.08187945932149887,
                    0.09541850537061691,
                    1.0
                ],
                "metallicFactor": 0.0,
                "roughnessFactor": 0.9019804000854492
            }
        }
    ],
    "meshes": [
        {
            "name": "Cube.128",
            "primitives": [
                {
                    "mode": 4,
                    "material": 0,
                    "indices": 2,
                    "attributes": {
                        "POSITION": 0,
                        "NORMAL": 1
                    }
                },
                {
                    "mode": 4,
                    "material": 1,
                    "indices": 5,
                    "attributes": {
                        "POSITION": 3,
                        "NORMAL": 4
                    }
                },
                {
                    "mode": 4,
                    "material": 2,
                    "indices": 8,
                    "attributes": {
                        "POSITION": 6,
                        "NORMAL": 7
                    }
                },
                {
                    "mode": 4,
                    "material": 3,
                    "indices": 11,
                    "attributes": {
                        "POSITION": 9,
                        "NORMAL": 10
                    }
                },
                {
                    "mode": 4,
                    "material": 4,
                    "indices": 14,
                    "attributes": {
                        "POSITION": 12,
                        "NORMAL": 13
                    }
                },
                {
                    "mode": 4,
                    "material": 5,
                    "indices": 17,
                    "attributes": {
                        "POSITION": 15,
                        "NORMAL": 16
                    }
                },
                {
                    "mode": 4,
                    "material": 6,
                    "indices": 20,
                    "attributes": {
                        "POSITION": 18,
                        "NORMAL": 19
                    }
                },
                {
                    "mode": 4,
                    "material": 7,
                    "indices": 23,
                    "attributes": {
                        "POSITION": 21,
                        "NORMAL": 22
                    }
                },
                {
                    "mode": 4,
                    "material": 8,
                    "indices": 26,
                    "attributes": {
                        "POSITION": 24,
                        "NORMAL": 25
                    }
                },
                {
                    "mode": 4,
                    "material": 9,
                    "indices": 29,
                    "attributes": {
                        "POSITION": 27,
                        "NORMAL": 28
                    }
                }
            ]
        },
        {
            "name": "Cube.007",
            "primitives": [
                {
                    "mode": 4,
                    "material": 3,
                    "indices": 32,
                    "attributes": {
                        "POSITION": 30,
                        "NORMAL": 31
                    }
                },
                {
                    "mode": 4,
                    "material": 8,
                    "indices": 35,
                    "attributes": {
                        "POSITION": 33,
                        "NORMAL": 34
                    }
                },
                {
                    "mode": 4,
                    "material": 5,
                    "indices": 38,
                    "attributes": {
                        "POSITION": 36,
                        "NORMAL": 37
                    }
                },
                {
                    "mode": 4,
                    "material": 6,
                    "indices": 41,
                    "attributes": {
                        "POSITION": 39,
                        "NORMAL": 40
                    }
                }
            ]
        }
    ],
    "nodes": [
        {
            "name": "RootNode",
            "children": [
                1,
                2
            ]
        },
        {
            "name": "Mill",
            "matrix": [
                100.0,
                0.0,
                0.0,
                0.0,
                0.0,
                -0.000016292067812173629,
                -100.0,
                0.0,
                0.0,
                100.0,
                -0.000016292067812173629,
                0.0,
                0.5858421325683594,
                0.0,
                0.0,
                1.0
            ],
            "mesh": 0
        },
        {
            "name": "Mill_Blades",
            "matrix": [
                100.0,
                0.0,
                0.0,
                0.0,
                0.0,
                -0.000016292067812173629,
                -100.0,
                0.0,
                0.0,
                100.0,
                -0.000016292067812173629,
                0.0,
                0.5858421325683594,
                312.4671936035156,
                87.10497283935547,
                1.0
            ],
            "mesh": 1
        }
    ],
    "scenes": [
        {
            "nodes": [
                0
            ]
        }
    ],
    "scene": 0
}