{
    "asset": {
        "version": "2.0",
        "generator": "Open Asset Import Library (assimp v5.0.5eb040c7)"
    },
    "accessors": [
        {
            "bufferView": 0,
            "byteOffset": 0,
            "componentType": 5126,
            "count": 1396,
            "type": "VEC3",
            "max": [
                1.941434383392334,
                1.4487922191619874,
                2.700270652770996
            ],
            "min": [
                -1.236496925354004,
                -1.4665485620498658,
                1.0431225299835206
            ]
        },
        {
            "bufferView": 1,
            "byteOffset": 0,
            "componentType": 5126,
            "count": 1396,
            "type": "VEC3",
            "max": [
                1.0,
                1.0,
                0.9981286525726318
            ],
            "min": [
                -0.8098369240760803,
                -1.0,
                -0.9999990463256836
            ]
        },
        {
            "bufferView": 2,
            "byteOffset": 0,
            "componentType": 5125,
            "count": 2118,
            "type": "SCALAR",
            "max": [
                1395
            ],
            "min": [
                0
            ]
        },
        {
            "bufferView": 3,
            "byteOffset": 0,
            "componentType": 5126,
            "count": 2706,
            "type": "VEC3",
            "max": [
                2.1782655715942385,
                1.6490026712417603,
                2.8106415271759035
            ],
            "min": [
                -1.3232566118240357,
                -1.6344943046569825,
                -0.03488209471106529
            ]
        },
        {
            "bufferView": 4,
            "byteOffset": 0,
            "componentType": 5126,
            "count": 2706,
            "type": "VEC3",
            "max": [
                1.0,
                1.0,
                1.0
            ],
            "min": [
                -1.0,
                -1.0,
                -1.0
            ]
        },
        {
            "bufferView": 5,
            "byteOffset": 0,
            "componentType": 5125,
            "count": 4380,
            "type": "SCALAR",
            "max": [
                2705
            ],
            "min": [
                0
            ]
        },
        {
            "bufferView": 6,
            "byteOffset": 0,
            "componentType": 5126,
            "count": 336,
            "type": "VEC3",
            "max": [
                3.0758328437805177,
                1.6490026712417603,
                2.8106415271759035
            ],
            "min": [
                -1.025397777557373,
                -1.6344943046569825,
                -0.04927988350391388
            ]
        },
        {
            "bufferView": 7,
            "byteOffset": 0,
            "componentType": 5126,
            "count": 336,
            "type": "VEC3",
            "max": [
                0.9999529123306274,
                1.0,
                0.7115337252616882
            ],
            "min": [
                -0.9074006676673889,
                -1.0,
                -0.7115335464477539
            ]
        },
        {
            "bufferView": 8,
            "byteOffset": 0,
            "componentType": 5125,
            "count": 624,
            "type": "SCALAR",
            "max": [
                335
            ],
            "min": [
                0
            ]
        },
        {
            "bufferView": 9,
            "byteOffset": 0,
            "componentType": 5126,
            "count": 112,
            "type": "VEC3",
            "max": [
                2.599207878112793,
                0.670983076095581,
                0.5415743589401245
            ],
            "min": [
                1.8939099311828614,
                -0.6392307877540588,
                0.00012012876686640084
            ]
        },
        {
            "bufferView": 10,
            "byteOffset": 0,
            "componentType": 5126,
            "count": 112,
            "type": "VEC3",
            "max": [
                0.7115343809127808,
                1.0,
                0.7098219990730286
            ],
            "min": [
                -0.711534321308136,
                -1.0,
                -0.7098221182823181
            ]
        },
        {
            "bufferView": 11,
            "byteOffset": 0,
            "componentType": 5125,
            "count": 168,
            "type": "SCALAR",
            "max": [
                111
            ],
            "min": [
                0
            ]
        },
        {
            "bufferView": 12,
            "byteOffset": 0,
            "componentType": 5126,
            "count": 180,
            "type": "VEC3",
            "max": [
                2.577223300933838,
                -0.4382689297199249,
                0.5214913487434387
            ],
            "min": [
                2.0724287033081056,
                -0.6826469302177429,
                0.02300642430782318
            ]
        },
        {
            "bufferView": 13,
            "byteOffset": 0,
            "componentType": 5126,
            "count": 180,
            "type": "VEC3",
            "max": [
                0.7097362875938416,
                0.9975363612174988,
                0.7098264694213867
            ],
            "min": [
                -0.7097209095954895,
                -0.9925072193145752,
                -0.7098254561424255
            ]
        },
        {
            "bufferView": 14,
            "byteOffset": 0,
            "componentType": 5125,
            "count": 348,
            "type": "SCALAR",
            "max": [
                179
            ],
            "min": [
                0
            ]
        },
        {
            "bufferView": 15,
            "byteOffset": 0,
            "componentType": 5126,
            "count": 36,
            "type": "VEC3",
            "max": [
                0.9895384907722473,
                1.2405281066894532,
                1.8686258792877198
            ],
            "min": [
                -1.0052129030227662,
                -1.2582844495773316,
                0.47712114453315737
            ]
        },
        {
            "bufferView": 16,
            "byteOffset": 0,
            "componentType": 5126,
            "count": 36,
            "type": "VEC3",
            "max": [
                1.0,
                1.0,
                7.975289406658703e-8
            ],
            "min": [
                -1.0,
                -1.0,
                -1.5950578813317407e-7
            ]
        },
        {
            "bufferView": 17,
            "byteOffset": 0,
            "componentType": 5125,
            "count": 84,
            "type": "SCALAR",
            "max": [
                35
            ],
            "min": [
                0
            ]
        },
        {
            "bufferView": 18,
            "byteOffset": 0,
            "componentType": 5126,
            "count": 1168,
            "type": "VEC3",
            "max": [
                3.0758328437805177,
                1.2598941326141358,
                1.8456430435180665
            ],
            "min": [
                -1.0199425220489503,
                -1.2776505947113038,
                -0.05182967334985733
            ]
        },
        {
            "bufferView": 19,
            "byteOffset": 0,
            "componentType": 5126,
            "count": 1168,
            "type": "VEC3",
            "max": [
                1.0,
                1.0,
                1.0
            ],
            "min": [
                -1.0,
                -1.0,
                -1.0
            ]
        },
        {
            "bufferView": 20,
            "byteOffset": 0,
            "componentType": 5125,
            "count": 1800,
            "type": "SCALAR",
            "max": [
                1167
            ],
            "min": [
                0
            ]
        },
        {
            "bufferView": 21,
            "byteOffset": 0,
            "componentType": 5126,
            "count": 1197,
            "type": "VEC3",
            "max": [
                1.0224263668060303,
                0.21531394124031068,
                0.7597147822380066
            ],
            "min": [
                -1.0381008386611939,
                -1.5584691762924195,
                -0.0245401281863451
            ]
        },
        {
            "bufferView": 22,
            "byteOffset": 0,
            "componentType": 5126,
            "count": 1197,
            "type": "VEC3",
            "max": [
                1.0,
                1.0,
                1.0
            ],
            "min": [
                -1.0,
                -1.0,
                -1.0
            ]
        },
        {
            "bufferView": 23,
            "byteOffset": 0,
            "componentType": 5125,
            "count": 1815,
            "type": "SCALAR",
            "max": [
                1196
            ],
            "min": [
                0
            ]
        },
        {
            "bufferView": 24,
            "byteOffset": 0,
            "componentType": 5126,
            "count": 56,
            "type": "VEC3",
            "max": [
                1.006154179573059,
                1.209336757659912,
                2.5954344272613527
            ],
            "min": [
                -1.0050456523895264,
                -1.2270931005477906,
                -0.014743450097739697
            ]
        },
        {
            "bufferView": 25,
            "byteOffset": 0,
            "componentType": 5126,
            "count": 56,
            "type": "VEC3",
            "max": [
                1.0,
                1.0,
                1.0
            ],
            "min": [
                -1.0,
                -1.0,
                -1.0
            ]
        },
        {
            "bufferView": 26,
            "byteOffset": 0,
            "componentType": 5125,
            "count": 90,
            "type": "SCALAR",
            "max": [
                55
            ],
            "min": [
                0
            ]
        },
        {
            "bufferView": 27,
            "byteOffset": 0,
            "componentType": 5126,
            "count": 1020,
            "type": "VEC3",
            "max": [
                0.24411247670650483,
                -1.0507352352142335,
                0.7619993090629578
            ],
            "min": [
                -0.4108709394931793,
                -1.5709599256515504,
                -0.0245401281863451
            ]
        },
        {
            "bufferView": 28,
            "byteOffset": 0,
            "componentType": 5126,
            "count": 1020,
            "type": "VEC3",
            "max": [
                1.0,
                1.0,
                1.0
            ],
            "min": [
                -1.0,
                -1.0,
                -1.0
            ]
        },
        {
            "bufferView": 29,
            "byteOffset": 0,
            "componentType": 5125,
            "count": 1578,
            "type": "SCALAR",
            "max": [
                1019
            ],
            "min": [
                0
            ]
        }
    ],
    "buffers": [
        {
            "byteLength": 248988,
            "uri": "result.bin"
        }
    ],
    "bufferViews": [
        {
            "buffer": 0,
            "byteOffset": 0,
            "byteLength": 16752,
            "target": 34962
        },
        {
            "buffer": 0,
            "byteOffset": 16752,
            "byteLength": 16752,
            "target": 34962
        },
        {
            "buffer": 0,
            "byteOffset": 33504,
            "byteLength": 8472,
            "target": 34963
        },
        {
            "buffer": 0,
            "byteOffset": 41976,
            "byteLength": 32472,
            "target": 34962
        },
        {
            "buffer": 0,
            "byteOffset": 74448,
            "byteLength": 32472,
            "target": 34962
        },
        {
            "buffer": 0,
            "byteOffset": 106920,
            "byteLength": 17520,
            "target": 34963
        },
        {
            "buffer": 0,
            "byteOffset": 124440,
            "byteLength": 4032,
            "target": 34962
        },
        {
            "buffer": 0,
            "byteOffset": 128472,
            "byteLength": 4032,
            "target": 34962
        },
        {
            "buffer": 0,
            "byteOffset": 132504,
            "byteLength": 2496,
            "target": 34963
        },
        {
            "buffer": 0,
            "byteOffset": 135000,
            "byteLength": 1344,
            "target": 34962
        },
        {
            "buffer": 0,
            "byteOffset": 136344,
            "byteLength": 1344,
            "target": 34962
        },
        {
            "buffer": 0,
            "byteOffset": 137688,
            "byteLength": 672,
            "target": 34963
        },
        {
            "buffer": 0,
            "byteOffset": 138360,
            "byteLength": 2160,
            "target": 34962
        },
        {
            "buffer": 0,
            "byteOffset": 140520,
            "byteLength": 2160,
            "target": 34962
        },
        {
            "buffer": 0,
            "byteOffset": 142680,
            "byteLength": 1392,
            "target": 34963
        },
        {
            "buffer": 0,
            "byteOffset": 144072,
            "byteLength": 432,
            "target": 34962
        },
        {
            "buffer": 0,
            "byteOffset": 144504,
            "byteLength": 432,
            "target": 34962
        },
        {
            "buffer": 0,
            "byteOffset": 144936,
            "byteLength": 336,
            "target": 34963
        },
        {
            "buffer": 0,
            "byteOffset": 145272,
            "byteLength": 14016,
            "target": 34962
        },
        {
            "buffer": 0,
            "byteOffset": 159288,
            "byteLength": 14016,
            "target": 34962
        },
        {
            "buffer": 0,
            "byteOffset": 173304,
            "byteLength": 7200,
            "target": 34963
        },
        {
            "buffer": 0,
            "byteOffset": 180504,
            "byteLength": 14364,
            "target": 34962
        },
        {
            "buffer": 0,
            "byteOffset": 194868,
            "byteLength": 14364,
            "target": 34962
        },
        {
            "buffer": 0,
            "byteOffset": 209232,
            "byteLength": 7260,
            "target": 34963
        },
        {
            "buffer": 0,
            "byteOffset": 216492,
            "byteLength": 672,
            "target": 34962
        },
        {
            "buffer": 0,
            "byteOffset": 217164,
            "byteLength": 672,
            "target": 34962
        },
        {
            "buffer": 0,
            "byteOffset": 217836,
            "byteLength": 360,
            "target": 34963
        },
        {
            "buffer": 0,
            "byteOffset": 218196,
            "byteLength": 12240,
            "target": 34962
        },
        {
            "buffer": 0,
            "byteOffset": 230436,
            "byteLength": 12240,
            "target": 34962
        },
        {
            "buffer": 0,
            "byteOffset": 242676,
            "byteLength": 6312,
            "target": 34963
        }
    ],
    "materials": [
        {
            "name": "RoofTiles_Red",
            "pbrMetallicRoughness": {
                "baseColorFactor": [
                    0.1178472638130188,
                    0.021405598148703576,
                    0.012257442809641362,
                    1.0
                ],
                "metallicFactor": 0.0,
                "roughnessFactor": 0.9019804000854492
            }
        },
        {
            "name": "Wood",
            "pbrMetallicRoughness": {
                "baseColorFactor": [
                    0.12234093993902207,
                    0.05478254705667496,
                    0.01932610385119915,
                    1.0
                ],
                "metallicFactor": 0.0,
                "roughnessFactor": 0.9019804000854492
            }
        },
        {
            "name": "Wood_Side",
            "pbrMetallicRoughness": {
                "baseColorFactor": [
                    0.307496041059494,
                    0.22709393501281739,
                    0.099591463804245,
                    1.0
                ],
                "metallicFactor": 0.0,
                "roughnessFactor": 0.9019804000854492
            }
        },
        {
            "name": "DarkWood",
            "pbrMetallicRoughness": {
                "baseColorFactor": [
                    0.06971006095409394,
                    0.032236870378255847,
                    0.012079938314855099,
                    1.0
                ],
                "metallicFactor": 0.0,
                "roughnessFactor": 0.9019804000854492
            }
        },
        {
            "name": "Metal",
            "pbrMetallicRoughness": {
                "baseColorFactor": [
                    0.07763298600912094,
                    0.08187945932149887,
                    0.09541850537061691,
                    1.0
                ],
                "metallicFactor": 0.0,
                "roughnessFactor": 0.9019804000854492
            }
        },
        {
            "name": "Windows",
            "pbrMetallicRoughness": {
                "baseColorFactor": [
                    0.028172848746180536,
                    0.028172848746180536,
                    0.028172848746180536,
                    1.0
                ],
                "metallicFactor": 0.0,
                "roughnessFactor": 0.9019804000854492
            }
        },
        {
            "name": "Wood_Light",
            "pbrMetallicRoughness": {
                "baseColorFactor": [
                    0.21340656280517579,
                    0.09224005788564682,
                    0.03175000101327896,
                    1.0
                ],
                "metallicFactor": 0.0,
                "roughnessFactor": 0.9019804000854492
            }
        },
        {
            "name": "Stone_Dark",
            "pbrMetallicRoughness": {
                "baseColorFactor": [
                    0.1237616166472435,
                    0.1461801826953888,
                    0.18126435577869416,
                    1.0
                ],
                "metallicFactor": 0.0,
                "roughnessFactor": 0.9019804000854492
            }
        },
        {
            "name": "Plaster",
            "pbrMetallicRoughness": {
                "baseColorFactor": [
                    0.3433777987957001,
                    0.3239832818508148,
                    0.18359464406967164,
                    1.0
                ],
                "metallicFactor": 0.0,
                "roughnessFactor": 0.9019804000854492
            }
        },
        {
            "name": "Stone_Light",
            "pbrMetallicRoughness": {
                "baseColorFactor": [
                    0.17722415924072267,
                    0.21141062676906587,
                    0.23063397407531739,
                    1.0
                ],
                "metallicFactor": 0.0,
                "roughnessFactor": 0.9019804000854492
            }
        }
    ],
    "meshes": [
        {
            "name": "Cube.047",
            "primitives": [
                {
                    "mode": 4,
                    "material": 0,
                    "indices": 2,
                    "attributes": {
                        "POSITION": 0,
                        "NORMAL": 1
                    }
                },
                {
                    "mode": 4,
                    "material": 1,
                    "indices": 5,
                    "attributes": {
                        "POSITION": 3,
                        "NORMAL": 4
                    }
                },
                {
                    "mode": 4,
                    "material": 2,
                    "indices": 8,
                    "attributes": {
                        "POSITION": 6,
                        "NORMAL": 7
                    }
                },
                {
                    "mode": 4,
                    "material": 3,
                    "indices": 11,
                    "attributes": {
                        "POSITION": 9,
                        "NORMAL": 10
                    }
                },
                {
                    "mode": 4,
                    "material": 4,
                    "indices": 14,
                    "attributes": {
                        "POSITION": 12,
                        "NORMAL": 13
                    }
                },
                {
                    "mode": 4,
                    "material": 5,
                    "indices": 17,
                    "attributes": {
                        "POSITION": 15,
                        "NORMAL": 16
                    }
                },
                {
                    "mode": 4,
                    "material": 6,
                    "indices": 20,
                    "attributes": {
                        "POSITION": 18,
                        "NORMAL": 19
                    }
                },
                {
                    "mode": 4,
                    "material": 7,
                    "indices": 23,
                    "attributes": {
                        "POSITION": 21,
                        "NORMAL": 22
                    }
                },
                {
                    "mode": 4,
                    "material": 8,
                    "indices": 26,
                    "attributes": {
                        "POSITION": 24,
                        "NORMAL": 25
                    }
                },
                {
                    "mode": 4,
                    "material": 9,
                    "indices": 29,
                    "attributes": {
                        "POSITION": 27,
                        "NORMAL": 28
                    }
                }
            ]
        }
    ],
    "nodes": [
        {
            "name": "RootNode",
            "children": [
                1
            ]
        },
        {
            "name": "Sawmill",
            "matrix": [
                100.0,
                0.0,
                0.0,
                0.0,
                0.0,
                -0.000016292067812173629,
                -100.0,
                0.0,
                0.0,
                100.0,
                -0.000016292067812173629,
                0.0,
                0.0,
                0.0,
                0.0,
                1.0
            ],
            "mesh": 0
        }
    ],
    "scenes": [
        {
            "nodes": [
                0
            ]
        }
    ],
    "scene": 0
}